<svg xmlns="http://www.w3.org/2000/svg" viewBox="0 0 64 80" x="0px" y="0px"><title>Graphic Charts - 25 - 64 - Expanded - Stroke 2 - 2020</title><g data-name="Layer 4"><g><path d="M32,20a6,6,0,1,1,6-6A6,6,0,0,1,32,20Zm0-10a4,4,0,1,0,4,4A4,4,0,0,0,32,10Z"/><path d="M18,35a6,6,0,1,1,6-6A6,6,0,0,1,18,35Zm0-10a4,4,0,1,0,4,4A4,4,0,0,0,18,25Z"/><path d="M25,56a6,6,0,1,1,6-6A6,6,0,0,1,25,56Zm0-10a4,4,0,1,0,4,4A4,4,0,0,0,25,46Z"/><path d="M11,56a6,6,0,1,1,6-6A6,6,0,0,1,11,56Zm0-10a4,4,0,1,0,4,4A4,4,0,0,0,11,46Z"/><path d="M12.58,46.25a1.25,1.25,0,0,1-.32,0,1,1,0,0,1-.63-1.27l3.84-11.5a1,1,0,1,1,1.9.64l-3.84,11.5A1,1,0,0,1,12.58,46.25Z"/><path d="M21.13,26.1a1,1,0,0,1-.78-1.63l6.7-8.34a1,1,0,0,1,1.56,1.26l-6.7,8.34A1,1,0,0,1,21.13,26.1Z"/><path d="M23.42,46.25a1,1,0,0,1-1-.68l-3.84-11.5a1,1,0,1,1,1.9-.64l3.84,11.5a1,1,0,0,1-.63,1.27A1.25,1.25,0,0,1,23.42,46.25Z"/><path d="M46,35a6,6,0,1,1,6-6A6,6,0,0,1,46,35Zm0-10a4,4,0,1,0,4,4A4,4,0,0,0,46,25Z"/><path d="M39,56a6,6,0,1,1,6-6A6,6,0,0,1,39,56Zm0-10a4,4,0,1,0,4,4A4,4,0,0,0,39,46Z"/><path d="M53,56a6,6,0,1,1,6-6A6,6,0,0,1,53,56Zm0-10a4,4,0,1,0,4,4A4,4,0,0,0,53,46Z"/><path d="M51.42,46.25a1,1,0,0,1-1-.68l-3.84-11.5a1,1,0,0,1,1.9-.64l3.84,11.5a1,1,0,0,1-.63,1.27A1.25,1.25,0,0,1,51.42,46.25Z"/><path d="M42.87,26.1a1,1,0,0,1-.78-.37l-6.7-8.34A1,1,0,0,1,37,16.13l6.7,8.34a1,1,0,0,1-.78,1.63Z"/><path d="M40.58,46.25a1.25,1.25,0,0,1-.32,0,1,1,0,0,1-.63-1.27l3.84-11.5a1,1,0,0,1,1.9.64l-3.84,11.5A1,1,0,0,1,40.58,46.25Z"/></g></g><text x="0" y="79" fill="#000000" font-size="5px" font-weight="bold" font-family="'Helvetica Neue', Helvetica, Arial-Unicode, Arial, Sans-serif">Created by Ian Rahmadi Kurniawan</text><text x="0" y="84" fill="#000000" font-size="5px" font-weight="bold" font-family="'Helvetica Neue', Helvetica, Arial-Unicode, Arial, Sans-serif">from the Noun Project</text></svg>