<svg id="Layer_1" enable-background="new 0 0 59.926 59.925" height="512" viewBox="0 0 59.926 59.925" width="512" xmlns="http://www.w3.org/2000/svg"><path d="m52.592 60c-.256 0-.512-.098-.707-.293l-43.318-43.318c-.391-.391-.391-1.023 0-1.414l6.364-6.364c.375-.375 1.039-.375 1.414 0l43.318 43.318c.188.188.293.442.293.707s-.105.52-.293.707l-6.364 6.364c-.195.195-.451.293-.707.293zm-41.904-44.318 41.904 41.904 4.95-4.95-41.904-41.904z"/><path d="m19.82 27.228c-.265 0-.52-.105-.707-.293l-10.546-10.546c-.391-.391-.391-1.023 0-1.414l6.364-6.364c.375-.375 1.039-.375 1.414 0l10.546 10.546c.391.391.391 1.023 0 1.414l-6.364 6.364c-.187.188-.442.293-.707.293zm-9.132-11.546 9.132 9.132 4.95-4.95-9.132-9.132z"/><path d="m31.727 20.174c-.058 0-.115-.005-.174-.015-.544-.095-.908-.613-.812-1.157.104-.598.172-1.211.2-1.821.025-.552.496-.968 1.045-.953.552.025.979.494.953 1.045-.032.694-.109 1.391-.228 2.073-.086.487-.508.828-.984.828zm-.096-5.843c-.464 0-.88-.324-.978-.796-.124-.597-.288-1.191-.486-1.765-.18-.522.097-1.091.619-1.272.523-.18 1.092.098 1.272.619.226.655.412 1.331.553 2.011.113.541-.235 1.07-.775 1.183-.069.013-.138.02-.205.02z"/><path d="m17.142 32.985c-.532 0-.975-.419-.998-.957-.024-.552.404-1.019.956-1.042.608-.026 1.221-.092 1.822-.195.542-.097 1.061.271 1.155.816.093.544-.272 1.062-.816 1.155-.684.118-1.381.192-2.073.223-.016-.001-.031 0-.046 0zm-3.893-.318c-.068 0-.138-.007-.207-.021-.678-.143-1.354-.331-2.009-.559-.522-.181-.798-.751-.616-1.273.181-.521.751-.797 1.273-.616.575.2 1.169.365 1.764.49.541.114.886.644.772 1.185-.099.472-.514.794-.977.794zm-5.386-2.265c-.19 0-.383-.054-.554-.168-.576-.384-1.133-.809-1.657-1.263-.417-.362-.462-.993-.1-1.411.361-.417.993-.462 1.411-.1.46.399.951.772 1.456 1.11.459.306.584.927.277 1.387-.192.289-.509.445-.833.445zm-4.163-4.096c-.317 0-.629-.15-.823-.431-.395-.57-.756-1.171-1.076-1.787-.254-.49-.063-1.094.428-1.348.49-.254 1.094-.062 1.348.427.281.541.598 1.069.945 1.57.314.454.201 1.077-.253 1.391-.175.12-.373.178-.569.178zm-2.358-5.348c-.457 0-.869-.314-.974-.778-.153-.675-.266-1.367-.333-2.057-.054-.55.349-1.039.898-1.092.55-.057 1.039.349 1.092.898.059.606.158 1.215.292 1.808.123.539-.215 1.074-.753 1.197-.074.016-.148.024-.222.024zm-.203-5.839c-.051 0-.102-.004-.154-.012-.546-.084-.92-.595-.836-1.141.106-.686.256-1.371.448-2.037.152-.531.707-.841 1.237-.685.531.153.837.707.685 1.237-.168.584-.3 1.187-.394 1.789-.075.495-.501.849-.986.849zm1.967-5.501c-.173 0-.349-.045-.508-.14-.475-.281-.632-.895-.351-1.37.353-.596.747-1.175 1.171-1.722.339-.437.967-.515 1.403-.177.436.339.515.967.176 1.403-.373.481-.72.99-1.03 1.514-.186.317-.519.492-.861.492zm26.268-.689c-.324 0-.641-.157-.833-.446-.336-.506-.709-.997-1.109-1.459-.361-.417-.315-1.049.103-1.41.418-.362 1.049-.315 1.411.103.454.525.878 1.083 1.262 1.659.306.46.181 1.081-.279 1.386-.173.113-.365.167-.555.167zm-22.4-3.691c-.299 0-.594-.133-.792-.387-.338-.437-.258-1.065.178-1.403.547-.424 1.128-.818 1.726-1.17.476-.282 1.089-.123 1.369.354s.122 1.089-.354 1.369c-.525.31-1.035.655-1.516 1.028-.181.141-.397.209-.611.209zm18.306-.482c-.197 0-.395-.058-.569-.178-.501-.348-1.029-.666-1.568-.947-.49-.255-.68-.859-.425-1.349s.859-.68 1.349-.425c.614.319 1.214.682 1.784 1.077.454.315.566.938.252 1.392-.194.28-.506.43-.823.43zm-13.094-2.16c-.436 0-.836-.287-.961-.726-.151-.531.156-1.084.688-1.236.666-.19 1.352-.34 2.036-.445.546-.084 1.056.292 1.14.838.083.546-.292 1.056-.837 1.139-.602.092-1.204.224-1.79.391-.093.026-.186.039-.276.039zm7.753-.203c-.074 0-.149-.008-.225-.025-.593-.136-1.202-.235-1.808-.296-.549-.055-.951-.544-.896-1.094.055-.549.543-.956 1.094-.896.69.069 1.382.182 2.057.337.539.124.875.66.751 1.198-.105.462-.517.776-.973.776z"/></svg>