<svg id="Capa_1" enable-background="new 0 0 512 512" height="512" viewBox="0 0 512 512" width="512" xmlns="http://www.w3.org/2000/svg"><g><path d="m507.607 49.879-45.485-45.486c-5.857-5.857-15.355-5.857-21.213 0l-35.355 35.586-6.364-6.364c-5.857-5.857-15.355-5.857-21.213 0l-62.933 62.933-33.941-33.941c-2.813-2.813-6.628-4.394-10.606-4.394s-7.793 1.58-10.606 4.394l-141.423 141.42c-5.858 5.857-5.858 15.355 0 21.213 2.929 2.929 6.768 4.394 10.606 4.394 3.839 0 7.678-1.465 10.606-4.394l130.816-130.814 23.335 23.335-266.58 266.579c-2.018 2.017-3.417 4.567-4.036 7.353l-22.857 102.053c-1.113 5.006.41 10.234 4.036 13.86 2.844 2.844 6.672 4.394 10.606 4.394 1.083 0 105.307-23.215 105.307-23.215 2.785-.618 5.335-2.019 7.353-4.036l350.725-350.726c2.813-2.813 4.394-6.628 4.394-10.606s-1.581-7.794-4.394-10.606l-6.364-6.363 35.585-35.355c5.858-5.859 5.858-15.357.001-21.214zm-472.85 427.365 11.816-52.37 40.553 40.553zm82.296-24.314-57.983-57.984 198.697-198.697 57.983 57.983zm219.91-219.911-57.983-57.983 36.063-36.063 57.982 57.983zm57.276-57.275-57.982-57.983 52.326-52.326 57.982 57.982zm56.569-90.51-24.042-24.042 24.749-24.98 24.272 24.273z"/></g></svg>